<svg xmlns="http://www.w3.org/2000/svg" width="28" height="28" viewBox="0 0 28 28">
  <g id="그룹_19468" data-name="그룹 19468" transform="translate(5417.465 2155.065)">
    <g id="그룹_19454" data-name="그룹 19454" transform="translate(-5414.022 -2148.908)">
      <g id="그룹_19451" data-name="그룹 19451" transform="translate(0 0)">
        <g id="그룹_19450" data-name="그룹 19450">
          <path id="패스_1" data-name="패스 1" d="M-5397.427-2128.686h0c-2.071,0-5.646-1.243-9.473-4.724-4.825-4.371-6.531-9.248-5.044-10.891.128-.133.247-.263.37-.4a3.715,3.715,0,0,1,2.529-1.578,3.061,3.061,0,0,1,2.223,1.244c2.165,2.414,1.494,3.451.224,4.751l-.153.158c-.159.172,0,1.17,2.688,3.655.688.59,2.819,2.425,3.746,2.425.128,0,.165-.04.185-.062l.118-.133a3,3,0,0,1,2.2-1.37,4.559,4.559,0,0,1,2.6,1.179,3.006,3.006,0,0,1,1.506,2.041,3.552,3.552,0,0,1-1.333,2.615c-.132.14-.261.278-.377.411A2.732,2.732,0,0,1-5397.427-2128.686Z" transform="translate(5412.465 2146.275)" fill="none" stroke="#333" stroke-miterlimit="10" stroke-width="2"/>
        </g>
      </g>
    </g>
    <rect id="사각형_24098" data-name="사각형 24098" width="28" height="28" transform="translate(-5417.465 -2155.065)" fill="none" opacity="0.2"/>
  </g>
</svg>
